<?xml version="1.0" encoding="UTF-8" standalone="no"?>
<svg xmlns:dc="http://purl.org/dc/elements/1.1/" xmlns:cc="http://creativecommons.org/ns#" xmlns:rdf="http://www.w3.org/1999/02/22-rdf-syntax-ns#" xmlns:svg="http://www.w3.org/2000/svg" xmlns="http://www.w3.org/2000/svg" xmlns:sodipodi="http://sodipodi.sourceforge.net/DTD/sodipodi-0.dtd" xmlns:inkscape="http://www.inkscape.org/namespaces/inkscape" version="1.1" width="595.00012" height="841" id="svg42" viewBox="0 0 595.00012 841" sodipodi:docname="logo_iel_original.svg" inkscape:version="0.92.3 (2405546, 2018-03-11)">
  <metadata id="metadata48">
    <rdf:RDF>
      <cc:Work rdf:about="">
        <dc:format>image/svg+xml</dc:format>
        <dc:type rdf:resource="http://purl.org/dc/dcmitype/StillImage"/>
        <dc:title/>
      </cc:Work>
    </rdf:RDF>
  </metadata>
  <defs id="defs46"/>
  <sodipodi:namedview pagecolor="#ffffff" bordercolor="#666666" borderopacity="1" objecttolerance="10" gridtolerance="10" guidetolerance="10" inkscape:pageopacity="0" inkscape:pageshadow="2" inkscape:window-width="1920" inkscape:window-height="978" id="namedview44" showgrid="false" inkscape:zoom="0.87802839" inkscape:cx="297.50006" inkscape:cy="420.5" inkscape:window-x="0" inkscape:window-y="27" inkscape:window-maximized="1" inkscape:current-layer="svg42"/>
  <path d="m 174.7409,358.936 c -3.3619,3.7769 -7.7278,4.7038 -13.085,2.778 -2.941,-1.0642 -7.7539,-8.6831 -7.74,-14.2441 0.009,-3.1408 0.7132,-6.353 4.591,-9.5128 3.8752,-3.1561 9.5391,-4.123 13.0921,-3.1451 3.5509,0.98 9.5011,9.144 7.954,16.6369 -0.6341,3.0741 -2.863,5.301 -4.8121,7.4871 z" style="fill:#ff0000;fill-rule:evenodd" id="path2" inkscape:connector-curvature="0"/>
  <path d="m 166.2049,390.8261 c -2.298,0.1029 -2.5438,10.6679 0.4091,15.8368 2.7079,-5.6619 1.0471,-15.7339 -0.4091,-15.8368 z M 262.866,287.764 c -13.3681,0.3609 -21.66,33.103 1.846,81.728 19.8561,-54.4071 9.718,-81.728 -1.846,-81.728 z M 384.1951,172.9759 c -26.7471,0 -28.531,106.274 3.9719,171.538 28.48,-64.1928 25.4191,-171.538 -3.9719,-171.538 z M 366.0049,149.437 c 19.349,-20.238 38.88,-0.7081 38.8741,-0.7121 37.9811,30.492 39.9421,157.9862 -1.0701,221.1092 17.119,24.2498 41.0122,40.2999 41.0122,40.2999 l -0.356,20.6841 c 0,0 -26.3911,-9.9862 -53.1372,-43.1521 -67.7599,87.0171 -125.4259,19.326 -125.4259,19.326 -5.7759,5.8938 -12.5269,11.5351 -21.663,16.081 -45.623,22.9779 -76.4759,-3.2811 -76.4759,-3.2811 0,0 -11.3442,12.3911 -26.0322,12.473 l 0.072,-2.7799 c 0,0 12.1972,0.375 21.037,-15.6011 0.0102,-0.019 -4.1848,-4.636 -5.826,-12.473 -6.3599,-28.8419 24.1251,-30.3191 18.216,0.4521 -0.8799,4.5851 -3.282,10.626 -3.282,10.626 0,0 41.7671,36.1871 82.1381,-19.94 0,0 -8.3231,-11.8789 -14.432,-23.156 -14.4519,-28.703 -12.236,-57.2581 -12.0439,-60.707 1.1518,-20.7071 12.8778,-37.8519 18.309,-43.2431 3.6428,-3.617 23.6069,-21.316 44.3228,15.2991 10.6002,19.755 11.6992,46.8281 1.044,79.1949 -7.535,22.8802 -12.9109,31.9561 -12.9109,31.9561 0,0 41.627,64.6019 98.4021,-21.702 -54.8141,-88.2661 -45.72,-186.5172 -10.7722,-220.754 z" style="fill:#000000;fill-rule:evenodd" id="path4" inkscape:connector-curvature="0"/>
  <path d="m 180.9831,546.8841 c 0,12.4857 -7.3752,18.5678 -19.7331,18.5678 -12.4209,0 -19.668,-6.0169 -19.668,-18.5678 v -28.726 h 10.158 v 28.726 c 0,5.0468 1.294,10.027 9.51,10.027 7.247,0 9.576,-3.1692 9.576,-10.027 v -28.726 h 10.1571 z" style="fill:#000000;fill-rule:evenodd" id="path6" inkscape:connector-curvature="0"/>
  <path d="m 189.718,518.1581 h 10.0931 l 19.2798,30.99 h 0.129 v -30.99 h 9.5111 v 46.1948 h -10.158 l -19.2149,-30.926 h -0.129 v 30.926 h -9.5111 z" style="fill:#000000;fill-rule:evenodd" id="path8" inkscape:connector-curvature="0"/>
  <path d="m 237.659,518.1581 h 10.1579 V 564.352 H 237.659 Z" style="fill:#000000;fill-rule:evenodd" id="path10" inkscape:connector-curvature="0"/>
  <path d="m 287.5419,533.686 c -0.6468,-4.5941 -5.0468,-8.0881 -10.093,-8.0881 -9.1219,0 -12.5518,7.7641 -12.5518,15.8502 0,7.7 3.4299,15.463 12.5518,15.463 6.211,0 9.705,-4.269 10.4811,-10.351 h 9.8351 c -1.0361,11.516 -8.9941,18.8918 -20.3162,18.8918 -14.298,0 -22.7089,-10.675 -22.7089,-24.0038 0,-13.716 8.4109,-24.3902 22.7089,-24.3902 10.1582,0 18.6982,5.9519 19.927,16.6281 z" style="fill:#000000;fill-rule:evenodd" id="path12" inkscape:connector-curvature="0"/>
  <path d="m 316.3331,546.4949 h 11.969 l -5.8232,-16.9509 h -0.1278 z m 0.9709,-28.3368 h 10.4159 l 17.2741,46.1948 h -10.5461 l -3.4939,-10.2878 h -17.2741 l -3.623,10.2878 h -10.286 z" style="fill:#000000;fill-rule:evenodd" id="path14" inkscape:connector-curvature="0"/>
  <path d="m 349.0061,518.1581 h 14.298 l 10.8028,31.767 h 0.1301 l 10.2229,-31.767 h 14.2982 v 46.1948 H 389.247 V 531.615 h -0.1301 l -11.321,32.7379 h -7.829 L 358.645,531.9378 h -0.1289 v 32.4151 h -9.51 z" style="fill:#000000;fill-rule:evenodd" id="path16" inkscape:connector-curvature="0"/>
  <path d="m 417.8449,539.8961 h 7.8931 c 4.7219,0 8.928,-1.0352 8.928,-6.9222 0,-5.8878 -4.2061,-6.923 -8.928,-6.923 h -7.8931 z m -10.1568,-21.738 h 20.8318 c 11.516,0 15.98,7.3099 15.98,14.8158 0,7.5042 -4.464,14.815 -15.98,14.815 h -10.675 v 16.564 h -10.1568 z" style="fill:#000000;fill-rule:evenodd" id="path18" inkscape:connector-curvature="0"/>
  <path d="M 141.152,483.7769 H 444.4651" style="fill:none;stroke:#000000;stroke-width:7.48909998;stroke-linecap:butt;stroke-linejoin:miter;stroke-dasharray:none" id="path20" inkscape:connector-curvature="0"/>
  <path d="m 147.329,673.6401 c -0.5601,0.631 -1.2881,0.7849 -2.181,0.464 -0.4901,-0.1772 -1.292,-1.4482 -1.29,-2.3751 0.002,-0.523 0.119,-1.0579 0.7651,-1.5849 0.646,-0.5261 1.5899,-0.6871 2.1818,-0.5241 0.5921,0.163 1.584,1.5239 1.326,2.7728 -0.106,0.5123 -0.477,0.8833 -0.8019,1.2473 z" style="fill:#ff0000;fill-rule:evenodd" id="path22" inkscape:connector-curvature="0"/>
  <path d="m 145.906,678.955 c -0.3829,0.0179 -0.424,1.7779 0.0689,2.6399 0.451,-0.9439 0.174,-2.622 -0.0689,-2.6399 z m 16.111,-17.1771 c -2.228,0.061 -3.611,5.518 0.307,13.6211 3.31,-9.0669 1.62,-13.6211 -0.307,-13.6211 z m 20.221,-19.131 c -4.4581,0 -4.756,17.712 0.6621,28.59 4.7458,-10.6988 4.237,-28.59 -0.6621,-28.59 z m -3.032,-3.9229 c 3.225,-3.3729 6.4809,-0.1182 6.48,-0.119 6.3301,5.0819 6.6569,26.3319 -0.1791,36.851 2.853,4.043 6.836,6.7169 6.836,6.7169 l -0.0598,3.447 c 0,0 -4.398,-1.664 -8.856,-7.191 -11.2932,14.5032 -20.9052,3.2202 -20.9052,3.2202 -0.9618,0.9828 -2.0869,1.923 -3.61,2.681 -7.6039,3.8288 -12.7459,-0.5471 -12.7459,-0.5471 0,0 -1.891,2.0659 -4.339,2.0789 l 0.0119,-0.464 c 0,0 2.033,0.0629 3.507,-2.5999 0.001,-0.003 -0.6979,-0.7719 -0.9709,-2.0781 -1.061,-4.807 4.021,-5.053 3.0359,0.0751 -0.1468,0.7651 -0.5479,1.77 -0.5479,1.77 0,0 6.9619,6.0321 13.6899,-3.322 0,0 -1.387,-1.98 -2.4049,-3.859 -2.4089,-4.7841 -2.0401,-9.5432 -2.0069,-10.1192 0.1919,-3.4517 2.1458,-6.3088 3.0509,-7.2068 0.6069,-0.602 3.9339,-3.5529 7.3871,2.5501 1.7668,3.2919 1.9499,7.8049 0.174,13.1998 -1.2551,3.812 -2.152,5.326 -2.152,5.326 0,0 6.9378,10.766 16.4009,-3.617 -9.136,-14.711 -7.62,-31.0859 -1.796,-36.7929 z" style="fill:#000000;fill-rule:evenodd" id="path24" inkscape:connector-curvature="0"/>
  <path d="m 148.369,704.9649 c 0,2.0812 -1.2291,3.0951 -3.2879,3.0951 -2.0712,0 -3.2782,-1.0031 -3.2782,-3.0951 v -4.788 h 1.6931 v 4.788 c 0,0.841 0.2149,1.671 1.5851,1.671 1.207,0 1.5948,-0.5278 1.5948,-1.671 v -4.788 h 1.6931 z" style="fill:#000000;fill-rule:evenodd" id="path26" inkscape:connector-curvature="0"/>
  <path d="m 149.8249,700.1769 h 1.6821 l 3.2139,5.1661 h 0.021 v -5.1661 h 1.5851 v 7.6992 h -1.6931 l -3.202,-5.1543 H 151.41 v 5.1543 h -1.5851 z" style="fill:#000000;fill-rule:evenodd" id="path28" inkscape:connector-curvature="0"/>
  <path d="m 157.8149,700.1769 h 1.6932 v 7.6992 h -1.6932 z" style="fill:#000000;fill-rule:evenodd" id="path30" inkscape:connector-curvature="0"/>
  <path d="m 166.1289,702.7649 c -0.108,-0.7659 -0.841,-1.3478 -1.682,-1.3478 -1.52,0 -2.092,1.2948 -2.092,2.643 0,1.2829 0.572,2.5758 2.092,2.5758 1.0352,0 1.6171,-0.7109 1.747,-1.7249 h 1.6392 c -0.1732,1.9199 -1.4992,3.149 -3.3862,3.149 -2.3828,0 -3.7849,-1.7801 -3.7849,-3.9999 0,-2.2881 1.4021,-4.066 3.7849,-4.066 1.6931,0 3.1161,0.991 3.3222,2.7708 z" style="fill:#000000;fill-rule:evenodd" id="path32" inkscape:connector-curvature="0"/>
  <path d="m 170.928,704.9 h 1.995 l -0.9711,-2.825 h -0.021 z m 0.1619,-4.7231 h 1.735 l 2.8792,7.6992 h -1.7572 l -0.5828,-1.7141 h -2.8792 l -0.6029,1.7141 h -1.7149 z" style="fill:#000000;fill-rule:evenodd" id="path34" inkscape:connector-curvature="0"/>
  <path d="m 176.3731,700.1769 h 2.3828 l 1.8011,5.2951 h 0.021 l 1.7039,-5.2951 h 2.3831 v 7.6992 h -1.5849 v -5.455 h -0.0212 l -1.8868,5.455 h -1.3062 l -1.887,-5.402 h -0.021 v 5.402 h -1.5848 z" style="fill:#000000;fill-rule:evenodd" id="path36" inkscape:connector-curvature="0"/>
  <path d="m 187.8469,703.7999 h 1.315 c 0.7871,0 1.487,-0.1718 1.487,-1.154 0,-0.9808 -0.6999,-1.1529 -1.487,-1.1529 h -1.315 z m -1.694,-3.623 h 3.4721 c 1.9199,0 2.664,1.2192 2.664,2.469 0,1.2512 -0.7441,2.4701 -2.664,2.4701 h -1.7781 v 2.7601 h -1.694 z" style="fill:#000000;fill-rule:evenodd" id="path38" inkscape:connector-curvature="0"/>
  <path d="m 141.7309,694.4469 h 50.5522" style="fill:none;stroke:#000000;stroke-width:1.24810004;stroke-linecap:butt;stroke-linejoin:miter;stroke-dasharray:none" id="path40" inkscape:connector-curvature="0"/>
</svg>